<svg id="visual" viewBox="0 0 900 600" width="3000" height="2000" xmlns="http://www.w3.org/2000/svg" xmlns:xlink="http://www.w3.org/1999/xlink" version="1.1"><rect x="0" y="0" width="900" height="600" fill="#001220"></rect><g fill="#A7233A"><circle r="52" cx="120" cy="551"></circle><circle r="39" cx="732" cy="402"></circle><circle r="38" cx="296" cy="164"></circle><circle r="45" cx="566" cy="116"></circle><circle r="42" cx="514" cy="584"></circle><circle r="43" cx="282" cy="362"></circle><circle r="50" cx="640" cy="325"></circle><circle r="47" cx="177" cy="298"></circle><circle r="43" cx="69" cy="311"></circle><circle r="46" cx="710" cy="185"></circle><circle r="44" cx="714" cy="536"></circle><circle r="41" cx="424" cy="364"></circle><circle r="40" cx="507" cy="252"></circle><circle r="49" cx="731" cy="51"></circle><circle r="41" cx="31" cy="129"></circle><circle r="48" cx="453" cy="82"></circle><circle r="46" cx="871" cy="418"></circle><circle r="48" cx="897" cy="96"></circle><circle r="49" cx="817" cy="240"></circle><circle r="46" cx="830" cy="528"></circle><circle r="38" cx="293" cy="529"></circle><circle r="44" cx="622" cy="480"></circle><circle r="40" cx="177" cy="112"></circle><circle r="49" cx="395" cy="257"></circle><circle r="46" cx="349" cy="47"></circle><circle r="38" cx="428" cy="499"></circle><circle r="50" cx="67" cy="27"></circle><circle r="49" cx="214" cy="9"></circle><circle r="45" cx="26" cy="407"></circle><circle r="44" cx="138" cy="419"></circle><circle r="43" cx="16" cy="566"></circle><circle r="48" cx="532" cy="397"></circle><circle r="45" cx="582" cy="2"></circle><circle r="49" cx="390" cy="594"></circle><circle r="47" cx="895" cy="314"></circle><circle r="49" cx="116" cy="200"></circle><circle r="39" cx="851" cy="3"></circle><circle r="48" cx="619" cy="591"></circle></g></svg>